<svg width="185" height="50" viewBox="0 0 185 50" fill="none" xmlns="http://www.w3.org/2000/svg">
<path d="M15.48 30V32.88H9.72V48H6.84V32.88H1.08V30H15.48ZM24.1303 48H21.2503V30H24.1303V48ZM43.1199 48L41.8239 43.704H35.0799L33.7359 48H30.6159L36.2799 30H40.8399L46.2399 48H43.1199ZM35.9919 40.824H40.9599L38.5359 32.736L35.9919 40.824ZM64.989 30H68.109V48H64.989L54.885 34.416V48H52.005V30H54.885L64.989 43.584V30ZM86.2708 30H89.4628L83.2228 42V48H80.3428V42L73.8628 30H77.1028L81.7588 39.12L86.2708 30ZM111.26 30V39.6C111.26 41.696 110.868 43.368 110.084 44.616C109.3 45.864 108.308 46.744 107.108 47.256C105.924 47.752 104.636 48 103.244 48C101.852 48 100.556 47.752 99.3564 47.256C98.1724 46.744 97.1884 45.864 96.4044 44.616C95.6204 43.368 95.2284 41.696 95.2284 39.6V30H98.1084V39.6C98.1084 41.6 98.5564 42.984 99.4524 43.752C100.364 44.504 101.628 44.88 103.244 44.88C104.86 44.88 106.116 44.504 107.012 43.752C107.924 42.984 108.38 41.6 108.38 39.6V30H111.26ZM138.837 30V32.88L128.565 45.12H138.837V48H125.421V45.12L135.693 32.88H125.421V30H138.837ZM157.567 30H160.447V48H157.567V40.44H147.487V48H144.607V30H147.487V37.56H157.567V30ZM182.965 30V39.6C182.965 41.696 182.573 43.368 181.789 44.616C181.005 45.864 180.013 46.744 178.813 47.256C177.629 47.752 176.341 48 174.949 48C173.557 48 172.261 47.752 171.061 47.256C169.877 46.744 168.893 45.864 168.109 44.616C167.325 43.368 166.933 41.696 166.933 39.6V30H169.813V39.6C169.813 41.6 170.261 42.984 171.157 43.752C172.069 44.504 173.333 44.88 174.949 44.88C176.565 44.88 177.821 44.504 178.717 43.752C179.629 42.984 180.085 41.6 180.085 39.6V30H182.965Z" fill="white"/>
<line x1="74" y1="9.5" x2="185" y2="9.49999" stroke="white" stroke-width="3"/>
<path d="M13.96 2.88H3.88V7.56H10.84V10.44H3.88V15.12H13.96V18H1V0H13.96V2.88Z" fill="white"/>
<path d="M33.1332 0V2.88L22.8612 15.12H33.1332V18H19.7172V15.12L29.9892 2.88H19.7172V0H33.1332Z" fill="white"/>
<path d="M54.2151 6.096C54.2151 7.456 53.8631 8.6 53.1591 9.528C52.4551 10.456 51.4951 11.16 50.2791 11.64L53.5431 18H49.9671L47.1351 12.336C46.9271 12.352 46.6071 12.36 46.1751 12.36H41.7831V18H38.9031V0H46.1751C47.6311 0 48.9671 0.224 50.1831 0.672C51.4151 1.12 52.3911 1.808 53.1111 2.736C53.8471 3.648 54.2151 4.768 54.2151 6.096ZM41.7831 9.48H46.1751C47.9671 9.48 49.2711 9.24 50.0871 8.76C50.9191 8.264 51.3351 7.376 51.3351 6.096C51.3351 4.912 50.9191 4.08 50.0871 3.6C49.2551 3.12 47.9511 2.88 46.1751 2.88H41.7831V9.48Z" fill="white"/>
<path d="M63.5706 18H60.6906V0H63.5706V18Z" fill="white"/>
</svg>
